<svg width="691" height="194" viewBox="0 0 691 194" fill="none" xmlns="http://www.w3.org/2000/svg">
<rect x="1.76562" y="1.97876" width="31.794" height="81.2514" rx="15.897" fill="#445EDF"/>
<rect x="49.457" y="1.97876" width="31.794" height="81.2514" rx="15.897" fill="#445EDF"/>
<rect x="102.447" y="98.9148" width="81.2514" height="81.2514" rx="22.3625" fill="#445EDF"/>
<rect y="98.2753" width="83.0178" height="83.0178" rx="41.5089" fill="#445EDF"/>
<path d="M178.75 32.9304C185.349 36.7402 185.349 46.2647 178.75 50.0745L116.97 81.6641C110.371 85.4739 102.123 80.7117 102.123 73.0921L102.123 9.9129C102.123 2.29331 110.371 -2.46893 116.97 1.34086L178.75 32.9304Z" fill="#DD406F"/>
<path d="M258.457 39.0771L285.58 125.079L313.045 39.0771H334.331L296.051 150.484H274.765L237 39.0771H258.457Z" fill="black"/>
<path d="M342.815 66.886H363.071V150.484H342.815V66.886ZM340.412 48.9829C340.412 45.3209 341.499 42.4599 343.673 40.4C345.847 38.2256 348.937 37.1384 352.943 37.1384C356.834 37.1384 359.866 38.2256 362.041 40.4C364.329 42.4599 365.474 45.3209 365.474 48.9829C365.474 52.645 364.329 55.5632 362.041 57.7376C359.866 59.7975 356.834 60.8275 352.943 60.8275C348.937 60.8275 345.847 59.7975 343.673 57.7376C341.499 55.5632 340.412 52.645 340.412 48.9829Z" fill="black"/>
<path d="M439.137 137.61C433.988 147.795 426.091 152.887 415.448 152.887C404.805 152.887 395.879 148.825 388.669 140.7C381.231 132.231 377.511 121.474 377.511 108.428C377.511 95.3815 381.059 84.7958 388.154 76.6706C395.135 68.7743 403.833 64.8261 414.247 64.8261C424.661 64.8261 432.5 69.0031 437.764 77.3572V39.5362H458.192V150.484H441.541L439.137 137.61ZM418.023 83.022C412.301 83.022 407.495 85.368 403.604 90.06C399.827 94.6376 397.939 100.817 397.939 108.599C397.939 116.381 399.884 122.675 403.775 127.482C407.666 132.174 412.587 134.52 418.538 134.52C423.459 134.52 427.865 132.574 431.756 128.683C435.761 124.678 437.764 119.643 437.764 113.577V102.763C437.535 96.812 435.532 91.9483 431.756 88.1718C428.323 84.7386 423.745 83.022 418.023 83.022Z" fill="black"/>
<path d="M484.671 116.324C477.919 110.602 474.543 103.449 474.543 94.8665C474.543 85.8258 478.091 78.5016 485.186 72.8941C492.053 67.5154 499.892 64.8261 508.704 64.8261C517.63 64.8261 525.069 66.4855 531.019 69.8042C531.706 63.2811 534.51 58.0169 539.431 54.0115C544.237 50.0061 549.902 48.0034 556.425 48.0034L555.395 67.401C545.553 67.401 540.461 70.6625 540.117 77.1856C544.352 82.4498 546.469 87.8285 546.469 93.3216C546.469 98.8147 545.496 103.45 543.551 107.226C541.605 110.888 538.973 113.978 535.654 116.496C528.788 121.989 520.434 124.735 510.592 124.735C504.984 124.735 499.892 123.877 495.314 122.16C490.737 123.534 488.448 126.28 488.448 130.4C488.448 135.55 492.797 138.125 501.494 138.125H529.475C548.472 138.125 557.97 144.762 557.97 158.037C557.97 162.5 556.826 166.849 554.537 171.083C552.362 175.432 549.158 179.266 544.924 182.585C535.54 189.909 523.753 193.571 509.562 193.571C495.829 193.571 484.671 190.767 476.088 185.16C468.078 179.781 464.072 173.201 464.072 165.419C464.072 160.269 465.617 156.149 468.707 153.059C471.911 150.084 476.088 148.195 481.238 147.394C474.486 143.275 471.11 138.182 471.11 132.117C471.11 128.111 472.369 124.793 474.887 122.16C477.404 119.414 480.666 117.468 484.671 116.324ZM500.121 152.373C489.363 152.83 483.985 156.893 483.985 164.56C483.985 168.451 486.216 171.541 490.679 173.83C495.257 176.233 500.636 177.435 506.815 177.435C512.995 177.435 517.802 176.92 521.235 175.89C524.782 174.86 527.758 173.487 530.161 171.77C535.311 168.337 537.886 164.217 537.886 159.411C537.886 157.351 537.142 155.634 535.654 154.261C534.281 153.002 532.221 152.373 529.475 152.373H500.121ZM526.385 94.6949C526.385 90.0028 525.069 86.2263 522.436 83.3653C519.919 80.3899 516.028 78.9022 510.764 78.9022C505.499 78.9022 501.494 80.3899 498.747 83.3653C496.001 86.2263 494.628 90.0028 494.628 94.6949C494.628 99.2724 496.001 103.049 498.747 106.024C501.494 109 505.499 110.488 510.764 110.488C516.028 110.488 519.919 109 522.436 106.024C525.069 103.049 526.385 99.2724 526.385 94.6949Z" fill="black"/>
<path d="M622.863 77.0139C625.724 80.676 627.841 84.9103 629.214 89.7167C630.702 94.5232 631.446 98.9291 631.446 102.935C631.446 106.94 631.217 110.545 630.759 113.749H576.858C577.087 120.501 578.746 125.994 581.836 130.228C584.926 134.463 589.618 136.58 595.912 136.58C604.266 136.58 609.244 132.918 610.847 125.594H631.274C629.901 133.948 626.067 140.528 619.773 145.334C613.25 150.37 605.296 152.887 595.912 152.887C584.926 152.887 575.714 148.882 568.275 140.871C560.607 132.517 556.774 121.817 556.774 108.771C556.774 95.3815 560.607 84.6242 568.275 76.4989C575.599 68.717 584.812 64.8261 595.912 64.8261C607.471 64.8261 616.454 68.8887 622.863 77.0139ZM596.084 80.9621C590.362 80.9621 585.899 82.8503 582.694 86.6269C579.49 90.2889 577.602 95.0382 577.03 100.875H612.563C612.563 91.8339 609.702 85.7686 603.98 82.6787C601.806 81.5343 599.174 80.9621 596.084 80.9621Z" fill="black"/>
<path d="M690.029 148.424C682.476 151.4 676.525 152.887 672.176 152.887C667.827 152.887 663.994 152.373 660.675 151.343C657.47 150.313 654.609 148.768 652.092 146.708C646.828 142.016 644.195 135.55 644.195 127.31V80.6188H632.523V67.0576H644.195V39.168H664.451V67.0576H687.11V80.6188H664.451V126.624C664.451 133.49 667.713 136.923 674.236 136.923C677.555 136.923 681.846 136.008 687.11 134.177L690.029 148.424Z" fill="black"/>
</svg>
